Music_KassTheme:
	musicheader 4, 1, $d290 + (Music_KassTheme_Ch2 - Music_KassTheme)
	musicheader 1, 2, $d290 + (Music_KassTheme_Empty - Music_KassTheme)
	musicheader 1, 3, $d290 + (Music_KassTheme_Ch3 - Music_KassTheme)
	musicheader 1, 4, $d290 + (Music_KassTheme_Empty - Music_KassTheme)

Music_KassTheme_Empty:
	endchannel

Music_KassTheme_Ch2:
	tempo 100
	notetype $C, $c5
	note __, 3
	octave 3
	note E_, 2
	note F_, 1
	note E_, 1
	note D#, 1
	note E_, 2
	octave 4
	note C_, 2
	octave 3
	notetype $D, $c5
	note B_, 10
	notetype $B, $c5
	note __, 4
	notetype $9, $c5
	note E_, 2
	notetype $C, $c5
	note F_, 1
	note E_, 1
	note D#, 1
	note E_, 3
	note B_, 2
	note A_, 9
	note __, 5
	note A_, 2
	note B_, 1
	note A_, 1
	note G#, 1
	note A_, 3
	octave 4
	note G_, 2
	notetype $B, $c5
	note F_, 2
	note __, 4
	note F_, 1
	notetype $D, $c5
	note __, 1
	notetype $B, $c5
	note F_, 2
	notetype $8, $c5
	note __, 4
	notetype $B, $c5
	note F_, 2
	notetype $D, $c5
	note __, 2
	notetype $B, $c5
	note G_, 2
	notetype $D, $c5
	note __, 2
	notetype $B, $c5
	note F_, 2
	notetype $D, $c5
	note __, 2
	notetype $B, $c5
	note F_, 2
	notetype $D, $c5
	note __, 2
	note E_, 6
	notetype $1, $c5
	note E_, 8
	notetype $D, $c5
	note __, 6
	notetype $1, $c5
	note __, 4
	notetype $D, $c5
	notetype $C, $c5
	note C_, 2
	note D_, 2
	notetype $B, $c5
	note E_, 2
	notetype $2, $c5
	note __, 1
	notetype $C, $c5
	note E_, 6
	notetype $B, $c5
	note D_, 2
	notetype $2, $c5
	note __, 1
	note D_, 16
	note __, 16
	note __, 11
	note __, 16
	notetype $1, $c5
	note __, 2
	notetype $2, $c5
	note D_, 12
	note E_, 12
	note D_, 11
	note __, 1
	notetype $C, $c5
	note D_, 6
	notetype $B, $c5
	note C_, 2
	notetype $2, $c5
	note __, 1
	note C_, 16
	note __, 16
	note __, 11
	note __, 16
	note __, 13
	octave 3
	note A_, 12
	note B_, 12
	octave 4
	notetype $D, $c5
	note C_, 5
	notetype $7, $c5
	note __, 1
	notetype $C, $c5
	note D_, 2
	note C_, 4
	octave 3
	notetype $B, $c5
	note B_, 2
	notetype $D, $c5
	note __, 2
	octave 4
	notetype $B, $c5
	note E_, 2
	notetype $D, $c5
	note __, 2
	notetype $B, $c5
	note C_, 2
	notetype $D, $c5
	note __, 2
	octave 3
	note A_, 16
	note __, 3
	notetype $1, $c5
	note __, 10
	notetype $D, $c5
	endchannel

Music_KassTheme_Ch3:
	tempo 100
	notetype $C, $a8
	note __, 12
	octave 2
	note B_, 4
	octave 4
	note D_, 1
	note __, 3
	note D_, 4
	octave 2
	note E_, 4
	octave 4
	note D_, 1
	note __, 3
	note D_, 1
	note __, 3
	octave 2
	note A_, 4
	octave 4
	note C_, 1
	note __, 3
	note C_, 4
	octave 2
	note A_, 4
	octave 4
	note C#, 1
	note __, 3
	note C#, 4
	octave 2
	note D_, 4
	octave 4
	note F_, 1
	note __, 3
	note F_, 4
	octave 2
	note G_, 4
	octave 4
	note G_, 1
	note __, 3
	note F_, 4
	octave 3
	note C_, 4
	octave 4
	note C_, 1
	note __, 3
	note C_, 4
	octave 3
	note C_, 4
	octave 4
	note C_, 1
	note __, 3
	note C_, 1
	note __, 3
	octave 2
	note A#, 4
	octave 4
	note D_, 1
	note __, 3
	note D_, 4
	octave 2
	note A#, 4
	octave 4
	note D_, 1
	note __, 3
	note D_, 4
	octave 2
	note A_, 4
	octave 4
	note C_, 1
	note __, 3
	note C_, 4
	octave 2
	note G_, 4
	octave 3
	note B_, 1
	note __, 3
	note B_, 4
	octave 2
	note F_, 4
	octave 4
	note C_, 1
	note __, 3
	note C_, 4
	octave 2
	note E_, 4
	note __, 8
	octave 1
	note A_, 4
	octave 4
	note E_, 4
	note C_, 4
	octave 3
	note A_, 7
	endchannel
